# AST/ASF file generated using VICON BodyLanguage
# -----------------------------------------------
:version 1.10
:name VICON
:units
  mass 1.0
  length 0.45
  angle deg
:documentation
   .ast/.asf automatically generated from VICON data using
   VICON BodyBuilder and BodyLanguage model FoxedUp or BRILLIANT.MOD
:root
   order TX TY TZ RX RY RZ
   axis XYZ
   position 0 0 0  
   orientation 0 0 0 
:bonedata
  begin
     id 1 
     name lhipjoint
     direction 0.646657 -0.683706 0.338203 
     length 2.4948 
     axis 0 0 0  XYZ
  end
  begin
     id 2 
     name lfemur
     direction 0.34202 -0.939693 0  
     length 6.79491  
     axis 0 0 20  XYZ
    dof rx ry rz
    limits (-160.0 20.0)
           (-70.0 70.0)
           (-60.0 70.0)
  end
  begin
     id 3 
     name ltibia
     direction 0.34202 -0.939693 0   
     length 7.56807   
     axis 0 0 20   XYZ
    dof rx
    limits (-10.0 170.0)
  end
  begin
     id 4 
     name lfoot
     direction 0.0679796 -0.186772 0.980048   
     length 2.53018   
     axis -90 7.62852e-016 20   XYZ
    dof rx rz
    limits (-45.0 90.0)
           (-70.0 20.0)
  end
  begin
     id 5 
     name ltoes
     direction 1.53625e-011 -4.21881e-011 1   
     length 1.26912   
     axis -90 7.62852e-016 20   XYZ
    dof rx
    limits (-90.0 20.0)
  end
  begin
     id 6 
     name rhipjoint
     direction -0.618868 -0.704065 0.348274   
     length 2.42265  
     axis 0 0 0  XYZ 
  end
  begin
     id 7 
     name rfemur
     direction -0.34202 -0.939693 0   
     length 6.73814   
     axis 0 0 -20   XYZ
    dof rx ry rz
    limits (-160.0 20.0)
           (-70.0 70.0)
           (-70.0 60.0)
  end
  begin
     id 8 
     name rtibia
     direction -0.34202 -0.939693 0   
     length 7.66799   
     axis 0 0 -20   XYZ
    dof rx
    limits (-10.0 170.0)
 end
 begin
     id 9 
     name rfoot
     direction -0.0727352 -0.199838 0.977125   
     length 2.57224  
     axis -90 -7.62852e-016 -20   XYZ
    dof rx rz
    limits (-45.0 90.0)
           (-20.0 70.0)
  end
  begin
     id 10 
     name rtoes
     direction -1.53501e-011 -4.21858e-011 1   
     length 1.28858   
     axis -90 -7.62852e-016 -20   XYZ
    dof rx
    limits (-90.0 20.0)
  end
  begin
     id 11 
     name lowerback
     direction -0.0172471 0.995767 -0.0902851   
     length 2.20206   
     axis 0 0 0   XYZ
    dof rx ry rz
    limits (-20.0 45.0)
           (-30.0 30.0)
           (-30.0 30.0)
  end
  begin
     id 12 
     name upperback
     direction -0.000110737 0.999714 0.0239043   
     length 2.19523   
     axis 0 0 0   XYZ
    dof rx ry rz
    limits (-20.0 45.0)
           (-30.0 30.0)
           (-30.0 30.0)
  end
  begin
     id 13 
     name thorax
     direction 0.00704869 0.997783 0.0661741   
     length 2.21977   
     axis 0 0 0   XYZ
    dof rx ry rz
    limits (-20.0 45.0)
           (-30.0 30.0)
           (-30.0 30.0)
  end
  begin
     id 14 
     name lowerneck
     direction -0.00407501 0.995527 0.0943846   
     length 1.83142   
     axis 0 0 0   XYZ
    dof rx ry rz
    limits (-20.0 45.0)
           (-30.0 30.0)
           (-30.0 30.0)
  end
  begin
     id 15 
     name upperneck
     direction 0.0640586 0.986486 -0.150807   
     length 1.84616   
     axis 0 0 0   XYZ
    dof rx ry rz
    limits (-20.0 45.0)
           (-30.0 30.0)
           (-30.0 30.0)
  end
  begin
     id 16
     name head
     direction 0.0188017 0.99791 -0.0618239  
     length 1.85932  
     axis 0 0 0   XYZ
    dof rx ry rz
    limits (-20.0 45.0)
           (-30.0 30.0)
           (-30.0 30.0)
  end
  begin
     id 17 
     name lclavicle
     direction 0.976074 0.206905 0.066852  
     length 3.81043  
     axis 0 0 0   XYZ
    dof ry rz
    limits (-20.0 10.0)
           (0.0 20.0)
  end
  begin
     id 18 
     name lhumerus
     direction 1 -4.48971e-011 1.86916e-027   
     length 5.37587   
     axis 180 -30 -90   XYZ
    dof rx ry rz
    limits (-60.0 90.0)
           (-90.0 90.0)
           (-90.0 90.0)
  end
  begin
     id 19
     name lradius
     direction 1 -4.48968e-011 1.69187e-027   
     length 3.35977   
     axis 180 -30 -90   XYZ
    dof rx
    limits (-10.0 170.0)
  end
  begin
     id 20
     name lwrist
     direction 1 -4.48968e-011 5.8978e-027   
     length 1.67988   
     axis -3.27506e-015 90 90   XYZ
    dof ry
    limits (-180.0 0.0)
 end
  begin
     id 21 
     name lhand
     direction 1 -4.49028e-011 1.18071e-026   
     length 0.561859   
     axis -7.52654e-015 90 90   XYZ
    dof rx rz
    limits (-90.0 90.0)
           (-45.0 45.0)
  end
  begin
     id 22 
     name lfingers
     direction 1 -4.48927e-011 2.35758e-026   
     length 0.452985   
     axis -1.50534e-014 90 90   XYZ
    dof rx
    limits (0.0 90.0)
  end
  begin
     id 23
     name lthumb
     direction 0.707107 -6.34898e-011 0.707107   
     length 0.650399   
     axis -90 45 5.69224e-014   XYZ
    dof rx rz
    limits (-45.0 45.0)
           (-45.0 45.0)
  end
  begin
     id 24 
     name rclavicle
     direction -0.988403 0.151789 0.00439714   
     length 3.6942  
     axis 0 0 0   XYZ 
    dof ry rz
    limits (-10.0 20.0)
           (-20.0 0.0)
  end
  begin
     id 25 
     name rhumerus
     direction -1 -4.48978e-011 1.62495e-027  
     length 5.22819   
     axis 180 30 90   XYZ
    dof rx ry rz
    limits (-90.0 60.0)
           (-90.0 90.0)
           (-90.0 90.0)
  end
  begin
     id 26 
     name rradius
     direction -1 -4.48961e-011 3.47796e-027   
     length 3.40764   
     axis 180 30 90   XYZ
    dof rx
    limits (-10.0 170.0)
  end
  begin
     id 27 
     name rwrist
     direction -1 -4.48949e-011 5.89602e-027   
     length 1.70382   
     axis -3.27506e-015 -90 -90   XYZ
    dof ry
    limits (-180.0 0.0)
  end
  begin
     id 28
     name rhand
     direction -1 -4.48977e-011 1.17973e-026   
     length 0.583255   
     axis -7.52654e-015 -90 -90   XYZ
    dof rx rz
    limits (-90.0 90.0)
           (-45.0 45.0)
  end
  begin
     id 29
     name rfingers
     direction -1 -4.49099e-011 2.36408e-026   
     length 0.470235   
     axis -1.50534e-014 -90 -90   XYZ
    dof rx
    limits (0.0 90.0)
  end
  begin
     id 30
     name rthumb
     direction -0.707107 -6.35011e-011 0.707107   
     length 0.675167   
     axis -90 -45 -5.69224e-014   XYZ
    dof rx rz
    limits (-45.0 45.0)
           (-45.0 45.0)
  end
:hierarchy
  begin
    root lhipjoint rhipjoint lowerback
    lhipjoint lfemur
    lfemur ltibia
    ltibia lfoot
    lfoot ltoes
    rhipjoint rfemur
    rfemur rtibia
    rtibia rfoot
    rfoot rtoes
    lowerback upperback
    upperback thorax
    thorax lowerneck lclavicle rclavicle
    lowerneck upperneck
    upperneck head
    lclavicle lhumerus
    lhumerus lradius
    lradius lwrist
    lwrist lhand lthumb
    lhand lfingers
    rclavicle rhumerus
    rhumerus rradius
    rradius rwrist
    rwrist rhand rthumb
    rhand rfingers
  end

#!OML:ASF G:\JayActor3\Patient Classification 1\Patient 1\Session 2\male.ASF
:FULLY-SPECIFIED
:DEGREES
156
root 50.1999 16.4922 -7.64229 69.0901 -88.0733 -68.9112
lowerback -0.98035 0.359544 0.58778
upperback 1.32075 0.45097 0.647938
thorax 1.90159 0.225975 0.346135
lowerneck -9.21182 -3.17675 -3.09938
upperneck 5.5779 -4.6301 8.75937
head 3.4488 -1.99797 2.90065
rclavicle -3.1029e-015 3.77691e-015
rhumerus -35.4366 -7.19179 -84.5612
rradius 29.2356
rwrist -4.25329
rhand -24.0027 2.66494
rfingers 7.12502
rthumb 2.47475 -27.3005
lclavicle -3.1029e-015 3.77691e-015
lhumerus -31.6622 8.26622 84.7066
lradius 26.0287
lwrist 9.14
lhand -18.0825 17.2066
lfingers 7.12502
lthumb 8.19069 47.0278
rfemur -8.87518 -2.46204 23.8156
rtibia 35.2918
rfoot -34.027 -7.98971
rtoes 4.96634
lfemur -6.40275 4.78443 -19.6006
ltibia 29.261
lfoot -22.9391 11.111
ltoes -12.232
157
root 50.1742 16.4887 -7.63494 69.1853 -88.0703 -68.9055
lowerback -1.03516 0.360251 0.617807
upperback 1.27482 0.451381 0.655702
thorax 1.88544 0.226642 0.337446
lowerneck -9.21423 -3.18286 -3.11168
upperneck 5.58751 -4.63556 8.74241
head 3.45222 -2.00121 2.89707
rclavicle -5.90918e-015 -2.98177e-015
rhumerus -35.4619 -7.09238 -84.5981
rradius 29.2105
rwrist -4.26454
rhand -23.9909 2.62638
rfingers 7.12502
rthumb 2.48615 -27.3389
lclavicle -5.90918e-015 -2.98177e-015
lhumerus -31.7815 8.21982 84.7042
lradius 26.0224
lwrist 9.1752
lhand -18.0671 17.1899
lfingers 7.12502
lthumb 8.20561 47.0106
rfemur -8.84827 -2.49001 23.7845
rtibia 35.257
rfoot -34.3833 -7.91937
rtoes 4.15498
lfemur -6.44817 4.74857 -19.6492
ltibia 29.3408
lfoot -23.2083 11.2326
ltoes -12.3212
158
root 50.1477 16.4852 -7.62699 69.4711 -88.0586 -69.0843
lowerback -1.08623 0.363096 0.663145
upperback 1.22708 0.454272 0.666592
thorax 1.86542 0.228692 0.323413
lowerneck -9.22571 -3.18595 -3.12436
upperneck 5.60363 -4.63683 8.72137
head 3.45874 -2.00218 2.89244
rclavicle 4.666e-015 2.06239e-015
rhumerus -35.476 -6.98416 -84.6402
rradius 29.1791
rwrist -4.27581
rhand -23.9694 2.5895
rfingers 7.12502
rthumb 2.50694 -27.3755
lclavicle 4.666e-015 2.06239e-015
lhumerus -31.8954 8.17683 84.6991
lradius 26.0047
lwrist 9.20749
lhand -18.0425 17.1539
lfingers 7.12502
lthumb 8.22928 46.9737
rfemur -8.82344 -2.51226 23.7638
rtibia 35.2172
rfoot -34.7211 -7.85439
rtoes 3.3815
lfemur -6.50222 4.70824 -19.6906
ltibia 29.4249
lfoot -23.4632 11.3664
ltoes -12.463
159
root 50.1201 16.4817 -7.61843 69.9023 -88.039 -69.4034
lowerback -1.13485 0.366957 0.722816
upperback 1.18068 0.458105 0.679995
thorax 1.84551 0.231336 0.303941
lowerneck -9.24817 -3.18495 -3.13465
upperneck 5.61908 -4.63216 8.69492
head 3.4663 -2.00011 2.88601
rclavicle 4.51692e-015 1.73937e-016
rhumerus -35.4777 -6.85558 -84.6926
rradius 29.15
rwrist -4.29542
rhand -23.9428 2.54835
rfingers 7.12502
rthumb 2.53262 -27.4164
lclavicle 4.51692e-015 1.73937e-016
lhumerus -32.0053 8.13505 84.6923
lradius 25.9856
lwrist 9.23366
lhand -18.0176 17.1317
lfingers 7.12502
lthumb 8.25339 46.9505
rfemur -8.79945 -2.53072 23.7517
rtibia 35.1742
rfoot -35.0344 -7.79743
rtoes 2.64904
lfemur -6.56069 4.66199 -19.7252
ltibia 29.5124
lfoot -23.7107 11.5007
ltoes -12.6279
160
root 50.0915 16.4781 -7.60922 70.6321 -88.0141 -70.015
lowerback -1.17988 0.374069 0.796426
upperback 1.13459 0.465901 0.695606
thorax 1.82401 0.236068 0.279007
lowerneck -9.27386 -3.18255 -3.13987
upperneck 5.6318 -4.62487 8.65702
head 3.473 -1.99707 2.87539
rclavicle -2.47238e-015 4.34841e-015
rhumerus -35.4632 -6.70395 -84.7579
rradius 29.1198
rwrist -4.32606
rhand -23.9135 2.50712
rfingers 7.12502
rthumb 2.56086 -27.4572
lclavicle -2.47238e-015 4.34841e-015
lhumerus -32.1136 8.09403 84.6838
lradius 25.9677
lwrist 9.25272
lhand -17.9972 17.1313
lfingers 7.12502
lthumb 8.27305 46.9493
rfemur -8.77926 -2.54666 23.7465
rtibia 35.1301
rfoot -35.3163 -7.74482
rtoes 1.95938
lfemur -6.62374 4.61768 -19.7532
ltibia 29.6017
lfoot -23.9491 11.6325
ltoes -12.8417
161
root 50.062 16.4745 -7.59946 71.6257 -87.9866 -70.8823
lowerback -1.22377 0.383675 0.880151
upperback 1.08713 0.476745 0.712453
thorax 1.80057 0.242382 0.249747
lowerneck -9.28852 -3.17625 -3.14571
upperneck 5.62584 -4.61111 8.62022
head 3.47191 -1.9915 2.86581
rclavicle -3.74352e-015 -1.48592e-014
rhumerus -35.4383 -6.53104 -84.835
rradius 29.0927
rwrist -4.36133
rhand -23.8856 2.4615
rfingers 7.12502
rthumb 2.5878 -27.5025
lclavicle -3.74352e-015 -1.48592e-014
lhumerus -32.2357 8.02655 84.6813
lradius 25.9725
lwrist 9.28547
lhand -17.9845 17.1541
lfingers 7.12502
lthumb 8.28529 46.9716
rfemur -8.76635 -2.55961 23.745
rtibia 35.087
rfoot -35.568 -7.69741
rtoes 1.30926
lfemur -6.69154 4.57855 -19.7769
ltibia 29.6904
lfoot -24.1775 11.7584
ltoes -13.0836
162
root 50.0315 16.4709 -7.58932 72.6469 -87.9568 -71.7712
lowerback -1.2665 0.393232 0.967594
upperback 1.04465 0.487289 0.730159
thorax 1.78164 0.248535 0.2193
lowerneck -9.30854 -3.17006 -3.14746
upperneck 5.6036 -4.59643 8.57971
head 3.46654 -1.98578 2.85448
rclavicle -2.89635e-016 1.96921e-015
rhumerus -35.397 -6.32742 -84.9287
rradius 29.0775
rwrist -4.4078
rhand -23.8615 2.41029
rfingers 7.12502
rthumb 2.61113 -27.5535
lclavicle -2.89635e-016 1.96921e-015
lhumerus -32.3541 7.93823 84.6845
lradius 25.9875
lwrist 9.32227
lhand -17.9808 17.1861
lfingers 7.12502
lthumb 8.2889 47.0035
rfemur -8.75821 -2.57099 23.746
rtibia 35.0465
rfoot -35.7965 -7.65571
rtoes 0.72208
lfemur -6.76097 4.54703 -19.7965
ltibia 29.7766
lfoot -24.3929 11.8761
ltoes -13.3594
163
root 50.0003 16.4671 -7.5789 73.7961 -87.9292 -72.7811
lowerback -1.30604 0.403128 1.0529
upperback 1.00449 0.498235 0.7494
thorax 1.76329 0.2548 0.19163
lowerneck -9.31971 -3.16264 -3.14601
upperneck 5.55095 -4.57816 8.53588
head 3.45019 -1.97923 2.84205
rclavicle 8.82845e-015 8.93289e-015
rhumerus -35.3418 -6.0925 -85.0368
rradius 29.0732
rwrist -4.459
rhand -23.8402 2.36033
rfingers 7.12502
rthumb 2.63167 -27.6032
lclavicle 8.82845e-015 8.93289e-015
lhumerus -32.4741 7.83275 84.693
lradius 26.0102
lwrist 9.35743
lhand -17.9877 17.2114
lfingers 7.12502
lthumb 8.2822 47.029
rfemur -8.75891 -2.57569 23.7461
rtibia 35.0104
rfoot -36.0074 -7.61964
rtoes 0.180773
lfemur -6.83239 4.52446 -19.8159
ltibia 29.8579
lfoot -24.5962 11.9899
ltoes -13.6416
164
root 49.9683 16.4633 -7.56831 74.9219 -87.9043 -73.761
lowerback -1.34155 0.410916 1.13013
upperback 0.967525 0.506457 0.770607
thorax 1.74588 0.259548 0.170409
lowerneck -9.3278 -3.153 -3.14903
upperneck 5.4717 -4.55532 8.50002
head 3.42536 -1.97086 2.83319
rclavicle 3.51445e-015 5.24295e-015
rhumerus -35.2765 -5.82343 -85.1592
rradius 29.0874
rwrist -4.51054
rhand -23.8221 2.30148
rfingers 7.12502
rthumb 2.64919 -27.6618
lclavicle 3.51445e-015 5.24295e-015
lhumerus -32.5955 7.70591 84.709
lradius 26.0415
lwrist 9.39042
lhand -17.996 17.2159
lfingers 7.12502
lthumb 8.27418 47.0339
rfemur -8.76796 -2.57188 23.7446
rtibia 34.9794
rfoot -36.2083 -7.58946
rtoes -0.310668
lfemur -6.90543 4.50935 -19.8366
ltibia 29.9327
lfoot -24.7846 12.0999
ltoes -13.9207
165
root 49.9358 16.4595 -7.55763 75.941 -87.8851 -74.6286
lowerback -1.36936 0.415362 1.19377
upperback 0.936965 0.510479 0.792871
thorax 1.73057 0.262006 0.157737
lowerneck -9.3468 -3.14255 -3.14943
upperneck 5.36636 -4.53003 8.46589
head 3.39431 -1.96147 2.82455
rclavicle -6.77033e-015 1.41634e-015
rhumerus -35.1944 -5.51744 -85.2981
rradius 29.122
rwrist -4.56517
rhand -23.8093 2.24398
rfingers 7.12502
rthumb 2.66157 -27.7192
lclavicle -6.77033e-015 1.41634e-015
lhumerus -32.7051 7.56207 84.7309
lradius 26.0693
lwrist 9.41048
lhand -18.002 17.2024
lfingers 7.12502
lthumb 8.26838 47.0206
rfemur -8.78524 -2.5582 23.7376
rtibia 34.9539
rfoot -36.4 -7.56815
rtoes -0.740872
lfemur -6.97953 4.49879 -19.8631
ltibia 29.9998
lfoot -24.9556 12.2107
ltoes -14.1862
166
root 49.9029 16.4555 -7.5468 76.9488 -87.8722 -75.4802
lowerback -1.38709 0.41854 1.2452
upperback 0.910588 0.513167 0.815141
thorax 1.71377 0.263631 0.151818
lowerneck -9.37444 -3.13056 -3.14991
upperneck 5.2432 -4.50214 8.43863
head 3.35936 -1.95074 2.81814
rclavicle 2.19595e-015 7.77745e-015
rhumerus -35.0989 -5.1838 -85.4508
rradius 29.173
rwrist -4.61717
rhand -23.8041 2.1908
rfingers 7.12502
rthumb 2.66658 -27.7723
lclavicle 2.19595e-015 7.77745e-015
lhumerus -32.8035 7.39347 84.7597
lradius 26.0893
lwrist 9.42042
lhand -18.0145 17.1792
lfingers 7.12502
lthumb 8.25634 46.9979
rfemur -8.80962 -2.53367 23.7248
rtibia 34.9338
rfoot -36.5844 -7.55666
rtoes -1.12576
lfemur -7.05231 4.49252 -19.8964
ltibia 30.0586
lfoot -25.1104 12.3278
ltoes -14.4354
167
root 49.8693 16.4514 -7.53578 77.7916 -87.8639 -76.1629
lowerback -1.39445 0.418455 1.28436
upperback 0.888578 0.51188 0.837723
thorax 1.69549 0.263109 0.152919
lowerneck -9.41472 -3.11666 -3.14852
upperneck 5.1033 -4.47146 8.41838
head 3.32144 -1.93842 2.81364
rclavicle 6.28501e-015 -2.18663e-015
rhumerus -34.9945 -4.82155 -85.616
rradius 29.2444
rwrist -4.6665
rhand -23.8113 2.13969
rfingers 7.12502
rthumb 2.65955 -27.8235
lclavicle 6.28501e-015 -2.18663e-015
lhumerus -32.8997 7.17537 84.8054
lradius 26.1188
lwrist 9.44
lhand -18.0256 17.166
lfingers 7.12502
lthumb 8.24564 46.9851
rfemur -8.83871 -2.50578 23.7051
rtibia 34.9188
rfoot -36.7629 -7.55693
rtoes -1.47201
lfemur -7.12222 4.48446 -19.9367
ltibia 30.1095
lfoot -25.2546 12.4451
ltoes -14.641
168
root 49.8349 16.4471 -7.52451 78.651 -87.8598 -76.8594
lowerback -1.39142 0.41884 1.31655
upperback 0.866392 0.511614 0.859053
thorax 1.67114 0.262993 0.156578
lowerneck -9.44908 -3.1031 -3.14227
upperneck 4.95217 -4.44151 8.39953
head 3.27916 -1.92674 2.80886
rclavicle -5.37029e-015 -9.0944e-015
rhumerus -34.8914 -4.43638 -85.7925
rradius 29.3217
rwrist -4.68893
rhand -23.864 2.13554
rfingers 7.12502
rthumb 2.60866 -27.8283
lclavicle -5.37029e-015 -9.0944e-015
lhumerus -32.997 6.90574 84.8649
lradius 26.1483
lwrist 9.46566
lhand -18.0281 17.1648
lfingers 7.12502
lthumb 8.24325 46.984
rfemur -8.87078 -2.47684 23.6794
rtibia 34.9079
rfoot -36.9319 -7.56807
rtoes -1.80064
lfemur -7.1871 4.47655 -19.9829
ltibia 30.1534
lfoot -25.3927 12.5649
ltoes -14.8215
169
root 49.7996 16.4423 -7.51301 79.6379 -87.8594 -77.6881
lowerback -1.37397 0.42219 1.34291
upperback 0.846203 0.515721 0.879208
thorax 1.64074 0.264971 0.162317
lowerneck -9.47519 -3.09111 -3.13219
upperneck 4.78946 -4.41406 8.38484
head 3.23223 -1.91657 2.8047
rclavicle 2.26739e-015 -6.55989e-015
rhumerus -34.7886 -4.03987 -85.9761
rradius 29.4022
rwrist -4.68488
rhand -23.9586 2.17417
rfingers 7.12502
rthumb 2.51737 -27.7907
lclavicle 2.26739e-015 -6.55989e-015
lhumerus -33.1003 6.58179 84.9393
lradius 26.1836
lwrist 9.50379
lhand -18.0224 17.1843
lfingers 7.12502
lthumb 8.24873 47.0033
rfemur -8.8959 -2.44831 23.6476
rtibia 34.9006
rfoot -37.0954 -7.58067
rtoes -2.11079
lfemur -7.23743 4.47738 -20.0321
ltibia 30.1908
lfoot -25.5252 12.6837
ltoes -14.9899
170
root 49.763 16.4371 -7.50117 80.8467 -87.859 -78.7393
lowerback -1.34949 0.430511 1.37047
upperback 0.830805 0.526548 0.897383
thorax 1.61138 0.270335 0.1655
lowerneck -9.50562 -3.08638 -3.19332
upperneck 4.38258 -4.3672 8.18012
head 3.44957 -1.92669 3.06102
rclavicle 1.25483e-015 -7.95139e-016
rhumerus -34.683 -3.6334 -86.1681
rradius 29.4924
rwrist -4.66267
rhand -24.0948 2.24211
rfingers 7.12502
rthumb 2.38577 -27.7243
lclavicle 1.25483e-015 -7.95139e-016
lhumerus -33.1928 6.213 85.024
lradius 26.2106
lwrist 9.5441
lhand -17.9984 17.2047
lfingers 7.12502
lthumb 8.27192 47.0227
rfemur -8.91784 -2.4252 23.6133
rtibia 34.8955
rfoot -37.2481 -7.596
rtoes -2.4196
lfemur -7.27955 4.48836 -20.0803
ltibia 30.2224
lfoot -25.6477 12.8048
ltoes -15.1554
